<svg id="Layer_2" height="512" viewBox="0 0 64 64" width="512" xmlns="http://www.w3.org/2000/svg" data-name="Layer 2"><path d="m60 64h4v-2h-3.519l-3.7-4.625a1 1 0 0 0 -.781-.375v-13h3a1 1 0 0 0 .479-1.878l-8.456-4.612 9.141-1.524a1 1 0 0 0 -.074-1.986 57.82 57.82 0 0 1 -13.09-2.735v-6.265a1 1 0 0 0 -2 0v5.625c-.3-.094-.61-.188-.926-.284-1.091-.332-2.2-.673-3.074-1.012v-11.329h4v3a1 1 0 0 0 2 0v-3h6v-2h-4.744a41.829 41.829 0 0 1 -9.572-6.729 41.808 41.808 0 0 1 -5.684-6.596v-1.675a1 1 0 0 0 -2 0v1.675a41.808 41.808 0 0 1 -5.685 6.6 41.829 41.829 0 0 1 -9.571 6.725h-4.744v2h6v13.238a92.949 92.949 0 0 1 -13.135 2.771 1 1 0 0 0 -.029 1.977l8.8 1.466-10.055 4.64a1 1 0 0 0 .419 1.908h5v1a1 1 0 0 0 2 0v-1h5v7h-5v-2a1 1 0 0 0 -2 0v8a1 1 0 0 0 -.781.375l-3.7 4.625h-3.519v2zm-37-7h-6v-4h6zm2-13h14v13h-6v-5a1 1 0 0 0 -2 0v5h-6zm16 13v-4h6v4zm0-6v-7h6v7zm-2 8v3h-14v-3zm18.919 3h-16.919v-3h14.52zm-8.919-5v-4h5v4zm5-6h-5v-7h5zm-29-26h14v4h-14zm1.685-14.271a43.847 43.847 0 0 0 5.315-6 43.847 43.847 0 0 0 5.315 6 43.716 43.716 0 0 0 6.867 5.271h-11.182a1 1 0 0 0 0 2h6v5h-6v-2a1 1 0 0 0 -2 0v2h-6v-5h4a1 1 0 0 0 0-2h-9.182a43.716 43.716 0 0 0 6.867-5.271zm-3.685 7.271v11.292c-1.321.479-2.657.926-4 1.345v-12.637zm-4.716 14.959c1.977-.585 3.959-1.244 5.895-1.959h15.61a38.551 38.551 0 0 0 3.7 1.255c.776.236 1.535.466 2.179.69a59.3 59.3 0 0 0 7.832 2.125l-5.583.93h-31.834l-6.025-1c2.777-.562 5.528-1.242 8.226-2.041zm-9.284 9.041h-1.447l8.667-4h31.525l7.333 4zm8 2h6v7h-6zm-7 9h5v4h-5zm-1.52 6h14.52v3h-16.919z"/><path d="m32 14a1 1 0 0 0 1-1v-2a1 1 0 0 0 -2 0v2a1 1 0 0 0 1 1z"/><path d="m14 24v-2a1 1 0 0 0 -2 0v2a1 1 0 0 0 2 0z"/><path d="m50 22v2a1 1 0 0 0 2 0v-2a1 1 0 0 0 -2 0z"/></svg>